<svg xmlns="http://www.w3.org/2000/svg" viewBox="0 0 64 64" role="img" aria-label="PDF Free Tool logo">
  <defs>
    <linearGradient id="bg" x1="0" x2="1" y1="0" y2="1">
      <stop offset="0%" stop-color="#ff6b6b" />
      <stop offset="100%" stop-color="#ff2e63" />
    </linearGradient>
    <linearGradient id="fold" x1="0" x2="1" y1="0" y2="1">
      <stop offset="0%" stop-color="#ffe8ed" />
      <stop offset="100%" stop-color="#ffcbd6" />
    </linearGradient>
  </defs>
  <rect width="60" height="60" x="2" y="2" rx="12" fill="url(#bg)" stroke="#fff4f6" stroke-width="2" />
  <path d="M42 2H22a4 4 0 0 0-4 4v34a4 4 0 0 0 4 4h20a4 4 0 0 0 4-4V12.5z" fill="#fff" opacity="0.85" />
  <path d="M42 2v12a4 4 0 0 0 4 4h12" fill="url(#fold)" />
  <path d="M22 36h20" stroke="#ff2e63" stroke-width="3" stroke-linecap="round" />
  <path d="M23 27v-8h6c2.2 0 4 1.8 4 4s-1.8 4-4 4z" fill="#ff2e63" />
  <path d="M35 19h5.5a5.5 5.5 0 0 1 0 11H35z" fill="#ff2e63" />
  <path d="M25 22.5h3.5a1.5 1.5 0 0 1 0 3H25z" fill="#fff" opacity="0.9" />
  <path d="M37.5 22.5H41a1.5 1.5 0 0 1 0 3h-3.5z" fill="#fff" opacity="0.9" />
</svg>
